<svg xmlns="http://www.w3.org/2000/svg" viewBox="0 0 267.5241699 100.7070923">
  <defs>
    <style>
      .trademark {
        fill: rgb(235, 235, 235)
      }
    </style>
  </defs>
  <path class="trademark" d="M14.285264,75.4498596c-1.8356323-0.4738159-3.7350464-0.9631348-5.5037231-1.5897522
	c-1.1306763-0.4013062-2.331604-1.6376343-2.0668335-3.0854492c0.2615356-1.4292603,1.7750244-2.3275757,3.8466797-2.2349548
	c2.1067505,0.0941467,3.0986938,0.771759,3.9567261,1.9278259c0.1785889,0.2407532,0.2376099,0.424469,0.2376099,0.424469h5.8306284
	c0,0-0.0047607-0.5525818-0.0255127-0.7856445c-0.0223389-0.2330933-0.0446777-0.3364868-0.2615356-1.0202942l-0.0111694-0.0354309
	c-1.2710571-3.3478699-5.1098032-5.3513184-9.4875498-5.3312378c-4.3681641,0.02005-9.1286621,2.8183899-9.8878174,6.4996338
	c-0.7288208,3.5299377,1.4815674,7.2034302,5.5021362,8.5910339c1.1179199,0.3873901,2.2805786,0.688385,3.4033203,0.9801025
	c0.6123657,0.1589966,1.2391357,0.3473206,1.8579102,0.4970398c2.8770752,0.7022705,4.4766245,2.0744629,3.6154785,4.7338867
	c-0.5629883,1.7441101-2.5852051,2.5019836-4.6680298,2.4572144c-2.2614136-0.0463257-4.0635986-1.1884766-4.663208-3.0638428
	c-0.1658936-0.5170593-0.098877-1.5249634-0.098877-1.5249634H0.0005352c0,0,0.0015869,0.8057251,0,1.0048218
	c-0.0270996,2.5405884,0.9744263,4.8388367,3.1194458,6.4780273c2.0031126,1.5310974,4.7142944,2.3599854,7.6168213,2.358429
	c0.5614014,0,1.1291504-0.0308838,1.7016602-0.0926208c4.838685-0.5309448,8.6741953-3.943573,9.1207285-8.1156311
	C21.9371815,80.9771423,19.8288441,76.8791504,14.285264,75.4498596"/>
<path class="trademark" d="M53.2651215,92.7312927h-5.4924927V81.8342896c-0.0048218-2.0080566-1.4369507-3.5438538-3.3044434-3.5639038
	c-1.8181152-0.0185242-3.2677612,1.5558472-3.2741699,3.588623v10.8722839h-5.5196533l-0.0015869-11.025116
	c0.078125-2.1824951-1.9296875-3.4450378-3.312439-3.435791c-1.7622662,0.0108032-3.2199078,1.5527344-3.2246685,3.4435425
	v11.0173645h-5.5212402V81.2524109c0.0510254-4.6243286,4.2963867-8.5046387,9.0712872-8.353363
	c1.9249268,0.0602112,3.8259277,0.7593689,5.7540894,2.2225952c1.6489868-1.1730042,2.3140259-1.4709167,3.6393433-1.8336487
	c5.3984375-1.4786377,10.7857056,2.1053467,11.1859741,7.6495361V92.7312927z"/>
<path class="trademark" d="M65.5689545,87.393158c-2.6409912,0-4.78125-2.0713196-4.78125-4.6273804
	c0-2.5559692,2.1402588-4.6273804,4.78125-4.6273804s4.78125,2.0714111,4.78125,4.6273804
	C70.3502045,85.3218384,68.2099457,87.393158,65.5689545,87.393158 M75.865036,72.799469h-5.5148315v1.1406555
	c-1.4289551-0.7269592-3.0540771-1.1406555-4.78125-1.1406555c-5.6870728,0-10.2977295,4.4622803-10.2977295,9.9663086
	c0,5.5041199,4.6106567,9.9648132,10.2977295,9.9648132c1.7271729,0,3.3522949-0.4121399,4.78125-1.1391296v1.1391296h5.5148315
	V72.799469z"/>
<path class="trademark" d="M86.6158295,72.8338623c-0.9489136,0.0602112-1.8579712,0.2763062-2.703186,0.6158447v-0.6498108h-5.5164795
	V92.730957h5.5148926V81.5622864c0.0063477-1.6175842,1.1705933-2.9943542,2.7685547-3.3138733
	c0.3269653-0.0648193,0.6762085-0.1219177,1.0031128-0.146637v-5.3018799
	C87.2888641,72.7906494,86.9842377,72.81073,86.6158295,72.8338623"/>
<path class="trademark" d="M98.5692596,78.1018677h4.1943359v-5.3018799h-4.1943359v-3.1826782l-5.5116577-0.0014954v3.1841736H90.19487
	v5.3018799h2.8627319v6.1585388c0.0478516,4.4051208,3.6807861,8.1681519,8.2084961,8.4567566
	c0.3683472,0.0231628,1.1035767,0.0123901,1.4974976,0.0031128v-5.3019104
	c-0.3364868-0.006134-1.1068115-0.0509033-1.4353027-0.1157227c-1.5980225-0.319519-2.7558594-1.6963196-2.7606201-3.3139038
	L98.5692596,78.1018677z"/>
<path class="trademark" d="M181.7848969,92.7311096h-5.4925537V81.8341064c-0.0047607-2.0080566-1.4369507-3.5438538-3.3044434-3.5639038
	c-1.8181152-0.0185242-3.2677612,1.5558472-3.2741089,3.588623v10.8722839h-5.5196533l-0.0015869-11.025116
	c0.078125-2.1824951-1.9297485-3.4450378-3.312439-3.435791c-1.7622681,0.0107727-3.2199097,1.5527344-3.2247314,3.4435425
	v11.0173645H152.13414V81.2522278c0.0510864-4.6243286,4.2964478-8.5046387,9.0712891-8.353363
	c1.9249268,0.0602112,3.8259277,0.7593689,5.7540894,2.2225952c1.6490479-1.1730042,2.3140869-1.4709167,3.6393433-1.8336487
	c5.3984375-1.4786377,10.7857056,2.1053467,11.1860352,7.6495056V92.7311096z"/>
<path class="trademark" d="M139.6386566,87.3062439c-2.6409912,0-4.78125-2.0714111-4.78125-4.6273804
	c0-2.5544739,2.1402588-4.6273804,4.78125-4.6273804s4.78125,2.0729065,4.78125,4.6273804
	C144.4199066,85.2348328,142.2796478,87.3062439,139.6386566,87.3062439 M139.6386566,72.7140503
	c-5.6871338,0-10.2960815,4.4622803-10.2960815,9.9648132c0,5.5040283,4.6089478,9.9663086,10.2960815,9.9663086
	c5.6870728,0,10.2960815-4.4622803,10.2960815-9.9663086C149.9347382,77.1763306,145.3257294,72.7140503,139.6386566,72.7140503"/>
<path class="trademark" d="M194.6041107,87.3929443c-2.6409912,0-4.78125-2.0713501-4.78125-4.6273804
	c0-2.5559998,2.1402588-4.6273804,4.78125-4.6273804s4.78125,2.0713806,4.78125,4.6273804
	C199.3853607,85.3215942,197.2451019,87.3929443,194.6041107,87.3929443 M194.6041107,72.7992554
	c-1.7271729,0-3.3522949,0.416748-4.78125,1.1437683v-1.1360168h-5.5164795v27.9000854h5.5164795v-9.1205139
	c1.4289551,0.7285156,3.0540771,1.1437683,4.78125,1.1437683c5.6870728,0,10.2977295-4.4606934,10.2977295-9.9647827
	C204.9018402,77.2615051,200.2911835,72.7992554,194.6041107,72.7992554"/>
<path class="trademark" d="M217.1241302,87.3928833c-2.6410522,0-4.78125-2.0713501-4.78125-4.6273804
	c0-2.5559692,2.1401978-4.6273804,4.78125-4.6273804c2.6409912,0,4.781189,2.0714111,4.781189,4.6273804
	C221.9053192,85.3215332,219.7651215,87.3928833,217.1241302,87.3928833 M227.4202118,72.7991943h-5.5148926v1.1406555
	c-1.428894-0.7269592-3.0540161-1.1406555-4.781189-1.1406555c-5.6871338,0-10.2977295,4.4622498-10.2977295,9.9663086
	c0,5.5040894,4.6105957,9.9648132,10.2977295,9.9648132c1.7271729,0,3.3522949-0.4121399,4.781189-1.1391296v1.1391296h5.5148926
	V72.7991943z"/>
<path class="trademark" d="M235.4933319,92.7309265h-5.5627441l-0.0015869-11.2643738
	c0.020752-4.7739868,3.9057007-8.6404114,8.6917114-8.666687c4.8977051-0.0277405,8.9086304,3.8232117,8.9453125,8.6373596
	v11.2937012h-5.526001V81.4866333c-0.0079956-1.6330261-1.1674194-3.2166138-3.291687-3.2166138
	c-2.1259155,0-3.2550049,1.5867004-3.2550049,3.4172363V92.7309265z"/>
<path class="trademark" d="M262.0252686,72.7991028l-3.99823,12.5269775l-3.530899-12.5269775h-5.4829712l4.4542847,15.7637024
	c0,0,1.1594238,4.1735535,0.9919434,5.5472412c-0.1833496,1.5188293-3.6010132,1.2795715-3.6010132,1.2795715v5.2972412h1.0653076
	c7.2531891,0.2346191,7.3824005-2.8153381,10.331192-11.1162109l5.2692871-16.7715454H262.0252686z"/>
<path class="trademark" d="M124.9405365,85.8656006c-1.293335,0.946167-2.8850098,1.5280762-4.6312866,1.5280762
	c-4.2645264,0-7.7221069-3.346283-7.7221069-7.4735718c0-4.1272583,3.4575806-7.4719849,7.7221069-7.4719849
	c1.7446899,0,3.3379517,0.5802917,4.6312866,1.5264587l3.9360352-3.8093262
	c-2.3093262-1.9015808-5.2979736-3.0560608-8.5673218-3.0560608c-7.3106079,0-13.2369385,5.7355652-13.2369385,12.8109131
	s5.9263306,12.8109436,13.2369385,12.8109436c3.2693481,0,6.2579956-1.1529846,8.5673218-3.0560608L124.9405365,85.8656006z"/>
<path class="trademark" d="M267.4498291,1.4464111l-18.3124542,46.7295837c-0.1591187,0.4059448-0.5505981,0.6730652-0.9866943,0.6730652
	h-41.8014526c-0.7470703,0-1.2596436-0.7523193-0.9862061-1.4476013l3.8129883-9.6950378
	c0.1593628-0.405365,0.5505981-0.671875,0.986145-0.671875h24.7503662L249.161911,0.6730957
	C249.3210297,0.2670898,249.7125092,0,250.1486053,0h16.3145905C267.2097168,0,267.722229,0.7513123,267.4498291,1.4464111z
	 M212.7580414,11.8145447h18.2901611c0.4355469,0,0.8267822-0.2665405,0.9862061-0.671875l3.8129883-9.6950684
	C236.1208344,0.7523499,235.6082611,0,234.8611908,0h-18.2901611c-0.4355469,0-0.8267822,0.26651-0.9862061,0.671875
	l-3.8129272,9.6950684C211.4983978,11.0621948,212.0109711,11.8145447,212.7580414,11.8145447z"/>
<path class="trademark" d="M198.1274872,7.573761h-24.1696777c-0.6965332-0.0145264-1.2574463-0.5812988-1.2574463-1.2813721
	c0-0.3531189,1.8416748-4.039917,1.8416748-4.039917C175.0539398,1.2146606,174.2987518,0,173.1415253,0h-13.4208374
	c-0.5945435,0-1.1374512,0.3375854-1.4004517,0.8707581l-3.0270996,6.1363831
	c-0.0006714,0.0012817-0.5074463,0.5547791-1.269104,0.5666199h-12.3931274c-0.586853,0-1.1241455,0.32901-1.3909302,0.8517456
	l-4.4351196,8.6902466c-0.5302734,1.0390015,0.2244263,2.2714539,1.3909912,2.2714539H147.1306
	c0.7042236,0.0057983,1.2734985,0.5773621,1.2734985,1.2829895c0,0.2546387-0.0847778,0.4689636-0.1824951,0.6720581
	l-12.4579468,25.2543335c-0.5119629,1.0378113,0.2432251,2.2524719,1.4004517,2.2524719h13.4208374
	c0.5945435,0,1.1375122-0.3375854,1.4005127-0.8707581c0,0,13.8253784-28.0244751,13.8265991-28.026947
	c0.2196655-0.4472046,0.5140381-0.5563354,1.3123779-0.5641479l11.4326782,0.0023193
	c0.7091675,0,1.3009644,0.5705566,1.2840576,1.2840271c-0.0068359,0.2891846-3.3429565,26.4154053-3.3429565,26.4154053
	c-0.1196899,0.9336243,0.607666,1.7601013,1.5488892,1.7601013h15.1916504c0.7857056,0,1.4490967-0.5837708,1.5488892-1.3631287
	l4.8887329-38.1520996C199.7960052,8.400238,199.0687103,7.573761,198.1274872,7.573761z"/>
<path class="trademark" d="M131.3187103,0H71.4146576c-1.003418,0-1.7419434,0.9394836-1.5050659,1.9145203l2.1405029,8.8088684
	c0.1687622,0.6943359,0.7905273,1.183075,1.5050049,1.183075h30.6495361c0.7091675,0,1.2840576,0.5748901,1.2840576,1.2840576
	c0,0.3531799-8.2086182,14.4266663-8.2086182,14.4266663c-0.3013306,0.5166321-0.6453247,1.1287842-1.166748,1.1705627
	c-0.4860229,0.0390015-0.6576538-0.2140808-1.1809082-0.8428955l-1.7620239-2.1739197
	c-0.2993774-0.3693237-0.7494507-0.5838623-1.2248535-0.5838623H76.8253632c-1.3267212,0-2.0601807,1.5387573-1.2247925,2.569458
	l16.623291,20.508667c0.2993774,0.3693237,0.7493896,0.5838623,1.2248535,0.5838623h15.1201172
	c1.3267212,0,2.0602417-1.5387573,1.2248535-2.569458l-5.9924316-7.3930969c0,0-0.6636963-0.9058838-0.4962158-1.3639832
	c0.1795654-0.4912415,0.8016968-0.5044556,1.7156372-0.5044556h6.531189c0.555481,0,1.0691528-0.2950745,1.348999-0.7749023
	l19.7668457-33.8948364C133.274765,1.307251,132.5238495,0,131.3187103,0z"/>
<path class="trademark" d="M44.6821747,25.7709351c-0.2993774-0.3693237-0.7493896-0.5838623-1.2248535-0.5838623h-3.4483643
	l21.223877-22.5552979C62.170639,1.6351318,61.464035,0,60.0955658,0H1.562547c-1.0116577,0-1.7562866,0.9472656-1.517395,1.9303284
	l2.1342163,8.7832642c0.170105,0.7000732,0.7970581,1.1928711,1.5174561,1.1928711h26.0496826
	c0.7091675,0,1.2840576,0.5748901,1.2840576,1.2840576c0,0.3413391-0.1357422,0.6491699-0.3529663,0.8791809L0.4276592,46.2173157
	c-0.9378052,0.9966125-0.2311401,2.6317444,1.1373291,2.6317444h15.5039682c0.430603,0,0.8421021-0.1778564,1.1372681-0.4914551
	l12.7548828-13.5461121c0.4864502-0.5160828,1.3326397-0.5733643,1.8151226-0.0535889
	c0.0460815,0.0496826,10.9594727,13.5072937,10.9594727,13.5072937c0.2993164,0.3693237,0.7493286,0.5838623,1.2247925,0.5838623
	h15.1201172c1.3267822,0,2.0603027-1.5387573,1.2248535-2.569458L44.6821747,25.7709351z"/>
</svg>
