<svg xmlns="http://www.w3.org/2000/svg" viewBox="0 0 1200 403.5">
  <defs>
    <style>
    .smart-c {
      fill: var(--grey);
    }
    .public-i {
      fill: var(--login-svg-fill);
    }
    </style>
  </defs>
	<path class="smart-c" d="M750.7762451,361.7999573C748.8762207,376,747.0762329,382.5,741.4762573,394.1999817
	c-3.2999878-3-5.9000244-4.7000122-10.5-7.1000061c5.2999878-8.3999939,7.7000122-15.8000183,9.0999756-27.8000183
	L750.7762451,361.7999573z M756.0762329,303.8999329c0-4.8999939-0.0999756-6.8999939-0.5999756-9.3999939h13.7999878
	c-0.4000244,2.2000122-0.5,4.2000122-0.5,9.1000061v2.8999939h10.4000244c5.2999878,0,7.7000122-0.1000061,11-0.7000122v12.7000122
	c-3.2999878-0.5-5.9000244-0.6000061-11-0.6000061h-35c-5.2000122,0-8,0.1000061-11.2000122,0.6000061v-12.7000122
	c3.2999878,0.6000061,5.2999878,0.7000122,11.0999756,0.7000122h11.9000244v-2.6000061H756.0762329z M749.6762085,354.999939
	c-4.7000122,0-8,0.1000061-11.4000244,0.5c0.4000244-3.3999939,0.5-6.2999878,0.5-10.7999878v-10.1000061
	c0-4.2999878-0.0999756-7-0.5-10.5c3.2999878,0.3999939,6.4000244,0.5,11.2000122,0.5h25.0999756
	c4.7999878,0,7.7000122-0.1000061,11-0.5c-0.4000244,2.8999939-0.5,5.6000061-0.5,10.2999878v10.3999939
	c0,4.8999939,0.0999756,7.6000061,0.5,10.7000122c-3.4000244-0.3999939-6.2000122-0.5-10.9000244-0.5h-6.2000122v35.3000183
	c0,4.1000061-1.2000122,7.2999878-3.4000244,9c-2,1.5-5.2999878,2.1000061-11,2.1000061c-1.2999878,0-2.7000122,0-6-0.1000061
	c-0.5-5-0.7999878-6.7000122-2.5-11.8999939c2.7999878,0.5,5.2000122,0.6000061,7.5999756,0.6000061c2.5,0,3-0.5,3-2.6000061
	v-32.3000183h-6.4998779V354.999939z M750.8762207,344.2999573h22v-9.2000122h-22V344.2999573z M779.3762207,357.999939
	c3.2000122,6.2999878,5,10.3999939,7.7999878,18.0000305l-9.7000122,5.2999878
	c-1.7999878-7.5000305-3.2000122-11.2000427-7-19.6000366L779.3762207,357.999939z M799.3762207,334.499939
	c-5,0-7.7999878,0.1000061-10.9000244,0.6000061v-13.2000122c2.7000122,0.5,5.4000244,0.6000061,10.9000244,0.6000061h3.2999878
	c0.4000244-6.3999939,0.5-10.7000122,0.5-16c0-4.7999878-0.0999756-8.2000122-0.5999756-11.1000061h13.4000244
	c-0.4000244,2.5-0.5999756,5.8999939-0.5999756,10.5c-0.0999756,5.5-0.2000122,10.1000061-0.7000122,16.6000061h13.2000122
	c5.9000244,0,8.5999756-0.1000061,11.5-0.6000061v13.2000122c-3.4000244-0.5-6-0.6000061-11.5-0.6000061h-14.4000244
	c-0.4000244,2.2999878-0.4000244,2.7000122-1.0999756,7h10.7000122c-0.4000244,2.7999878-0.5,4.2000122-0.5,9.2999878
	l-0.4000244,34.9000244c-0.0999756,2.1000061,0.5999756,2.6000061,3.9000244,2.6000061c4.0999756,0,4.5-1.2999878,4.5-20.8000183
	c4.5,2.6000061,7.4000244,3.7000122,10.7000122,4.5c-0.5,14.3000183-0.9000244,18.9000244-2.7000122,22.8000183
	c-1.9000244,4.2999878-5.4000244,5.7000122-13.7999878,5.7000122c-4.7999878,0-8.2999878-0.5-10.4000244-1.5
	c-2.5-1.2000122-3.4000244-3.2999878-3.2999878-7.6000061l0.4000244-40.5000305v-2.7999878
	c-2.2000122,11.8999939-6.4000244,24-12.0999756,34.2000427c-4.9000244,8.7999878-8.2999878,13.3999939-16.2000122,21.2000122
	c-3.2999878-4.2999878-5.2999878-6.3999939-9.4000244-10c5-4.7000122,5.9000244-5.5,8.9000244-9.3999939
	c6.2000122-7.7999878,9.0999756-13.0000305,12.2999878-21.8000183c3.4000244-9.2999878,5.2000122-16.8999939,6.5999756-27.8999939
	h-2.2000732V334.499939z M825.9761963,296.3999329c5.9000244,6.6000061,7.7999878,9.2999878,12.9000244,17.2000122l-9.5,7.2999878
	c-4.2999878-8.2999878-6.9000244-12.2000122-12.2000122-18.6000061L825.9761963,296.3999329z"/>
<path class="smart-c" d="M866.8762207,341.9000244c-5.4000244,0-8.4000244,0.1000061-12.0999756,0.6000061v-11.1000061
	c3.2999878,0.3999939,6.2999878,0.5,12.0999756,0.5h14.2000122c-1.7999878-3.7000122-3-6.3999939-4.2999878-8.7000122h-12.7000122
	c-5.7000122,0-10.2000122,0.2000122-13.9000244,0.6000061v-11.7000122c3.5999756,0.5,7.4000244,0.7000122,13.4000244,0.7000122
	h3.7000122c-2.2000122-4.1000061-3.5999756-6-8-10.8999939l11.7000122-4.5c4,5.5,5.5999756,8.2999878,9,15.2999878h6.7000122
	v-8.2999878c0-3.5-0.2000122-6.7999878-0.5999756-9.1000061h12.7999878
	c-0.2000122,2.1000061-0.4000244,4.7000122-0.4000244,8.7000122v8.7999878h8.2999878v-8.7999878
	c0-3.7000122-0.0999756-6.3999939-0.4000244-8.7000122h12.7999878c-0.4000244,2.2000122-0.5999756,5.3999939-0.5999756,9.1000061
	v8.2999878h7.4000244c4.0999756-5.8999939,6.2999878-10,8.4000244-15.7000122l12.0999756,4.5
	c-2.7999878,4.7000122-4.7000122,7.6000061-7.2999878,11.2000122h3.2999878c6.0999756,0,9.7000122-0.2000122,13.2000122-0.7000122
	v11.7000122c-3.5999756-0.3999939-8.2000122-0.6000061-13.9000244-0.6000061h-11.7000122
	c-2.2000122,4.7000122-2.7000122,5.7000122-4.2999878,8.7000122h13.5999756c5.7000122,0,8.7000122-0.1000061,12.0999756-0.5
	v11.1000061c-3.5999756-0.5-6.5999756-0.6000061-12.0999756-0.6000061h-30.5999756v5.6000061h24.5
	c5.2999878,0,8.7999878-0.1000061,12.0999756-0.6000061v10.5c-3.2999878-0.5-6.9000244-0.6000061-12.0999756-0.6000061h-24.5
	v5.8999939h32.7000122c6.7000122,0,10.7999878-0.2000122,14.2000122-0.7000122v11.7000122
	c-4.2999878-0.5-8.7000122-0.7000122-14.0999756-0.7000122h-23.5c4,3.4000244,9.2999878,6.6000366,15.9000244,9.4000244
	c7.5,3.2000122,13.5999756,4.7999878,24.4000244,6.7000122c-3.2999878,4.5-4.7000122,7-6.7000122,11.8999939
	c-19.7000122-5.3999939-32.9000244-12.5-43.5-23.2000122c0.4000244,4.5,0.4000244,5.5,0.4000244,8.2999878v5.7000122
	c0,4.8999939,0.2000122,8.6000061,0.7999878,11.7999878H895.576355c0.5-3.3999939,0.7000122-7.2999878,0.7000122-11.8999939V386
	c0-2.7000122,0-3.2000122,0.4000244-8c-5.5,5.6000061-9.7999878,9-16.9000244,12.8999939
	C872.2763672,395,865.1763916,398,855.8763428,400.6999817c-1.9000244-4.1000061-4.0999756-7.6000061-7.0999756-11.2000122
	c17.0999756-3.6000061,28.9000244-8.7999878,38.2999878-16.6000366h-21.7999878c-5.5,0-9.7000122,0.2000122-14.2000122,0.7000122
	v-11.7000122c3.7000122,0.5,7.7000122,0.7000122,14.0999756,0.7000122h31v-5.8999939h-23.2000122
	c-5.2000122,0-8.7000122,0.1000061-11.9000244,0.6000061v-10.5c3.2999878,0.5,6.7000122,0.6000061,11.9000244,0.6000061h23.2000122
	v-5.6000061h-29.3001099V341.9000244z M912.7762451,331.9000244c1.7999878-3.3999939,2.7000122-5.5,3.9000244-8.7000122h-26.7000122
	c1.5999756,3.5,2.2999878,5.2999878,3.5,8.7000122H912.7762451z"/>
<path class="smart-c" d="M702.7140503,365.8040771h-40.2999878V351.782135h40.2999878V365.8040771z"/>
<path class="smart-c" d="M626.7179565,379.0747681c-3.2078247,2.701355-7.3723755,4.3334045-11.8746338,4.3334045
	c-10.1862793,0-18.4591675-8.2728577-18.4591675-18.459137s8.2728271-18.459137,18.4591675-18.459137
	c4.5022583,0,8.6668091,1.6320496,11.8746338,4.3334045l14.1820068-14.1820068
	c-6.8659058-6.3594055-16.0391846-10.2425842-26.0567017-10.2425842c-21.2166748,0-38.550293,17.3335876-38.550293,38.5503235
	s17.3336182,38.5503235,38.550293,38.5503235c10.0175171,0,19.1906738-3.9394531,26.0567017-10.2425537L626.7179565,379.0747681z"/>
<path class="smart-c" d="M563.0750122,326.7363892v76.76297h-20.4851685v-76.76297H563.0750122z M563.0750122,296.5714722v20.4851379
	h-20.4851685v-20.4851379H563.0750122z"/>
<path class="smart-c" d="M523.2160034,296.5714722v106.927887h-20.4851379v-106.927887H523.2160034z"/>
<path class="smart-c" d="M449.8370361,347.2778015c10.1862793,0,18.4028625,7.9914551,18.4028625,17.8400574
	c0,9.8486328-8.2165833,17.8400879-18.4028625,17.8400879c-10.1862183,0-18.402771-7.9914551-18.402771-17.8400879
	C431.4342651,355.2692566,439.6508179,347.2778015,449.8370361,347.2778015 M449.8370361,403.4993591
	c21.8921509,0,39.6759033-17.1647339,39.6759033-38.3815002c0-21.2167358-17.7837524-38.3814697-39.6759033-38.3814697
	c-6.6408081,0-12.8876343,1.5757751-18.402771,4.389679v-35.1173706h-21.2730408v107.4906616h21.2730408v-4.389679
	C436.893158,401.923584,443.1962891,403.4993591,449.8370361,403.4993591"/>
<path class="smart-c" d="M375.5014648,326.7363892h21.441803v43.3901978
	c-0.0562439,18.4028625-15.026123,33.2601929-33.48526,33.3727722
	c-18.8530579,0.1125488-34.3294678-14.7447815-34.4420166-33.2602234v-43.5027466h21.2730408v43.3339233
	c0.0562439,6.3031311,4.5022583,12.381134,12.6625061,12.381134c8.1602783,0,12.5499878-6.1342773,12.5499878-13.1690063v-42.546051
	H375.5014648z"/>
<path id="P_5_" class="smart-c" d="M282.6502075,296.5714722h-41.0265503v106.927887h20.4851685V361.684906h20.7102966
	c18.3465271-0.1125488,33.0350037-14.9136047,32.9787598-33.0350647
	C315.6290588,310.9785767,300.8842163,296.6277466,282.6502075,296.5714722z M282.5939026,341.3123474h-20.4851379v-24.1994629
	h19.7535095c6.9784241,0,13.056427,4.1645508,13.056427,11.9871826
	C294.8625183,336.9789429,288.8408203,341.256073,282.5939026,341.3123474z"/>
<rect y="252.9000092" class="smart-c" width="1200" height="4"/>
<path class="public-i" d="M1199.5,6.5000005l-82.0999756,209.5000153c-0.6999512,1.8000031-2.5,3-4.4000244,3h-73.1999512H925.500061
	c-3.2999878,0-5.5999756-3.3999939-4.4000244-6.5L938.2000122,169c0.7000122-1.8000031,2.5-3,4.4000244-3h111.000061l63.9000244-163
	C1118.2000732,1.2,1120.0001221,0,1121.9001465,0h73.1999512C1198.4000244,0,1200.7000732,3.4000003,1199.5,6.5000005z
	 M954.2000732,53.0000038h82c2,0,3.6999512-1.2000008,4.4000244-3l17.1999512-43.5000038
	C1059,3.4000003,1056.7000732,0,1053.4000244,0h-82c-2,0-3.7000122,1.2-4.4000244,3.0000002l-17.1999512,43.5
	C948.6000366,49.6000023,950.9000244,53.0000038,954.2000732,53.0000038z M888.6000366,34H780.3000488
	c-3.0999756-0.0999985-5.5999756-2.5999985-5.5999756-5.6999989c0-1.6000004,8.2999878-18.1000023,8.2999878-18.1000023
	C785.2000732,5.4000001,781.8000488,0,776.6000366,0h-60.2000122c-2.7000122,0-5.0999756,1.5000001-6.2999878,3.9000003
	L696.500061,31.4000015c0,0-2.2999878,2.5-5.7000122,2.5h-55.5999756c-2.5999756,0-5,1.5-6.2000122,3.7999992
	l-19.9000244,38.9999962c-2.4000244,4.6999969,1,10.1999969,6.2000122,10.1999969h44.5
	c3.2000122,0,5.7000122,2.5999985,5.7000122,5.8000031c0,1.1000061-1.2999878,4.1000061-1.2999878,4.1000061
	l-55.2999878,112.2000122c-2.2999878,4.6999969,1.0999756,10.1000061,6.2999878,10.1000061h60.2000122
	c2.7000122,0,5.0999756-1.5,6.2999878-3.8999939l62-125.7000122c1-2,2.2999878-2.5,5.9000244-2.5h51.2999878
	c3.2000122,0,5.7999878,2.5999985,5.7999878,5.8000031c0,1.3000107-0.0999756,1.7000046-0.2000122,2.9000092l-14.7999878,115.5
	c-0.5,4.1999969,2.7000122,7.8999939,6.9000244,7.8999939h68.0999756c3.5,0,6.5-2.6000061,6.9000244-6.1000061
	l21.9000244-171.1000214C896.1000366,37.7000008,892.9000244,34,888.6000366,34z M589.1000366,0H320.5000305
	c-4.5,0-7.7999878,4.1999998-6.7000122,8.6000004l9.6000061,39.5c0.7999878,3.0999985,3.5,5.2999992,6.7000122,5.2999992
	h137.3999939c3.2000122,0,5.7999878,2.5999985,5.7999878,5.7999992c0,1.5999985-36.7999878,64.6999969-36.7999878,64.6999969
	c-1.3999939,2.3000031-2.8999939,5.0999985-5.2000122,5.1999893c-2.2000122,0.1999969-2.8999939-1-5.2999878-3.7999954
	l-7.8999939-9.6999969c-1.2999878-1.6999969-3.3999939-2.5999985-5.5-2.5999985h-67.8000183
	c-5.8999939,0-9.2000122,6.9000015-5.5,11.5l74.5,92.0000153c1.2999878,1.6999969,3.3999939,2.6000061,5.5,2.6000061h67.7999878
	c5.8999939,0,9.2000122-6.8999939,5.5-11.5L465.7000122,174.5c0,0-3-4.1000061-2.2000122-6.1000061
	c0.7999878-2.1999969,3.6000061-2.3000031,7.7000122-2.3000031H500.5c2.5,0,4.7999878-1.3000031,6-3.5l88.6000366-152
	C597.9000244,5.9000006,594.500061,0,589.1000366,0z M200.6000061,115.6000061
	c-1.3000031-1.6999969-3.3999939-2.5999985-5.5-2.5999985h-15.5l95.2000122-101.2000046
	C279.0000305,7.3000007,275.8000183,0,269.7000122,0H7.3000002C2.8000002,0-0.6,4.1999998,0.5,8.6999998l9.6000004,39.3000031
	c0.8000002,3.0999985,3.5999994,5.2999992,6.8000011,5.2999992h116.8000107c3.1999969,0,5.8000031,2.5999985,5.8000031,5.7999992
	c0,1.5-0.6000061,2.9000015-1.6000061,3.9000015L2.2000003,207.2000122c-4.1999998,4.5-1.0000001,11.8000031,5.0999999,11.8000031
	h69.5c1.9000015,0,3.8000031-0.8000031,5.0999985-2.1999969l57.2000046-60.7000122
	c2.1999969-2.3000031,6-2.6000061,8.1000061-0.1999969c0.1999969,0.1999969,49.0999908,60.6000061,49.0999908,60.6000061
	c1.3000031,1.6999969,3.3999939,2.6000061,5.5,2.6000061h67.8000031c5.8999939,0,9.2000122-6.8999939,5.5-11.5
	L200.6000061,115.6000061z"/>
</svg>
