<svg xmlns="http://www.w3.org/2000/svg" viewBox="0 0 2749.8381348 219.3000031">
  <defs>
    <style>
      .svg-logo{fill:var(--login-svg-fill);}
	  .logo-word{fill:#8A8A8A;}
    </style>
  </defs>
  <path class="svg-logo" d="M1199.208252,6.5999937l-82.0999756,209.5c-0.6999512,1.8000031-2.5,3-4.4000244,3h-73.1999512H925.208374
  c-3.2999878,0-5.5999756-3.3999939-4.4000244-6.5l17.0999756-43.5c0.7000122-1.8000031,2.5-3,4.4000244-3h111l63.9000244-163
  c0.6999512-1.8,2.5-3,4.4000244-3h73.1999512C1198.1082764,0.0999939,1200.4083252,3.499994,1199.208252,6.5999937z
   M954.0083618,53.0999947h81.999939c2,0,3.6999512-1.2000008,4.4000244-3l17.0999756-43.5
  c1.1999512-3.0999997-1.0999756-6.5-4.4000244-6.5h-81.999939c-2,0-3.7000122,1.2-4.4000244,3l-17.0999756,43.5
  C948.3083496,49.6999931,950.6083374,53.0999947,954.0083618,53.0999947z M888.4083862,34.0999947H780.0083618
  c-3.0999756-0.0999985-5.5999756-2.6000004-5.5999756-5.7000008c0-1.6000004,8.2999878-18.1000023,8.2999878-18.1000023
  c2.2999878-4.6999998-1.0999756-10.1000004-6.2999878-10.1000004H716.208374c-2.7000122,0-5.0999756,1.5-6.2999878,3.8999999
  l-13.5999756,27.5c0,0-2.2999878,2.5000019-5.7000122,2.5000019h-55.6000366c-2.5999756,0-5,1.5-6.2000122,3.7999992l-19.9000244,39
  c-2.4000244,4.6999969,1,10.1999969,6.2000122,10.1999969h44.5c3.2000122,0,5.7000122,2.5999985,5.7000122,5.8000031
  c0,1.0999985-1.2999878,4.0999985-1.2999878,4.0999985L608.708374,209.1999969
  c-2.2999878,4.6999969,1.0999756,10.1000061,6.2999878,10.1000061h60.2000122c2.7000122,0,5.0999756-1.5,6.2999878-3.8999939
  l62-125.6999969c1-2,2.2999878-2.5,5.9000244-2.5h51.2999878c3.2000122,0,5.7999878,2.5999985,5.7999878,5.8000031
  c0,1.3000031-0.0999756,1.6999969-0.2000122,2.9000015l-14.7999878,115.4999924
  c-0.5,4.1999969,2.7000122,7.8999939,6.9000244,7.8999939h68.0999756c3.5,0,6.5-2.6000061,6.9000244-6.1000061
  l21.9000244-171.1000061C895.8083496,37.7999954,892.6083374,34.0999947,888.4083862,34.0999947z M588.8083496,0.0999939H320.208374
  c-4.5,0-7.7999878,4.1999998-6.7000122,8.6000004l9.6000061,39.5c0.7999878,3.0999985,3.5,5.2999992,6.7000122,5.2999992H467.208374
  c3.2000122,0,5.7999878,2.5999985,5.7999878,5.7999992c0,1.5999985-36.7999878,64.6999969-36.7999878,64.6999969
  c-1.3999939,2.3000031-2.8999939,5.1000061-5.2000122,5.1999969c-2.2000122,0.1999969-2.8999939-1-5.2999878-3.8000031
  l-7.8999939-9.6999969c-1.2999878-1.6999969-3.3999939-2.5999985-5.5-2.5999985h-67.8000183
  c-5.8999939,0-9.2000122,6.9000015-5.5,11.5l74.5,92.0000076c1.2999878,1.6999969,3.3999939,2.6000061,5.5,2.6000061h67.7999878
  c5.8999939,0,9.2000122-6.8999939,5.5-11.5l-26.8999939-33.1000061c0,0-3-4.1000061-2.2000122-6.1000061
  c0.7999878-2.1999969,3.6000061-2.3000031,7.7000122-2.3000031h29.2999878c2.5,0,4.7999878-1.3000031,6-3.5l88.6000061-152
  C597.6083374,5.9999938,594.208374,0.0999939,588.8083496,0.0999939z M200.3083496,115.6999893
  c-1.3000031-1.6999969-3.3999939-2.5999985-5.5-2.5999985h-15.5l95.2000122-101.0999985
  c4.2000122-4.5,1-11.8000002-5.1000061-11.8000002H7.0083489c-4.5-0.1000013-7.9000001,4.0999985-6.8000002,8.5999985
  l9.5999994,39.3000031c0.8000002,3.0999985,3.5999994,5.2999992,6.8000002,5.2999992h116.8000031
  c3.1999969,0,5.8000031,2.5999985,5.8000031,5.7999992c0,1.5-0.6000061,2.9000015-1.6000061,3.9000015L1.9083488,207.2999878
  c-4.1999998,4.5-1,11.8000031,5.1000004,11.8000031h69.5c1.9000015,0,3.8000031-0.8000031,5.0999985-2.1999969
  l57.2000046-60.6999969c2.1999969-2.3000031,6-2.6000061,8.1000061-0.1999969
  c0.1999969,0.1999969,49.0999908,60.5999908,49.0999908,60.5999908c1.3000031,1.6999969,3.3999939,2.6000061,5.5,2.6000061
  h67.8000031c5.8999939,0,9.2000122-6.8999939,5.5-11.5L200.3083496,115.6999893z"/>
<path class="logo-word" d="M2137.317627,106.4456329c6.8823242,0.9176331,12.7321777,1.3764496,22.1379395,1.3764496h36.4760742
  c9.6350098,0,15.5998535-0.4588242,22.3671875-1.3764496v31.3142853c-7.7998047-1.147049-12.7321777-1.3764496-22.3671875-1.3764496
  h-36.4760742c-9.1762695,0-14.3381348,0.2294006-22.1379395,1.3764496V106.4456329L2137.317627,106.4456329z"/>
<path class="logo-word" d="M2332.0856934,135.2364044c-3.7854004,28.5613861-7.5708008,41.7523804-18.5820313,65.2667694
  c-6.5380859-6.0793304-11.8146973-9.4057617-21.220459-14.3380432
  c10.5527344-16.9762421,15.5998535-31.7731018,18.3527832-55.8610077L2332.0856934,135.2364044z M2342.6386719,18.9262161
  c0-9.8645716-0.2294922-13.8792229-1.1472168-18.811512H2369.25c-0.6884766,4.4734688-0.9177246,8.4881201-0.9177246,18.3526936
  v5.8499184h20.9909668c10.5527344,0,15.5998535-0.2294083,22.1379395-1.3764534v25.464365
  c-6.652832-0.9176369-11.8144531-1.1470451-22.1379395-1.1470451h-70.4284668
  c-10.3232422,0-16.0585938,0.2294083-22.5966797,1.1470451V22.8261662
  c6.5380859,1.1470432,10.5527344,1.3764515,22.3674316,1.3764515h23.9731445V18.9262161z M2329.677002,121.5866013
  c-9.4057617,0-16.0585938,0.2294006-22.8261719,0.9176407c0.6884766-6.8822632,0.9177246-12.7321854,0.9177246-21.6791229
  V80.6371536c0-8.7175293-0.229248-14.1086349-0.9177246-21.2203026c6.5380859,0.6882248,12.9616699,0.9176369,22.5966797,0.9176369
  h50.4699707c9.6350098,0,15.5998535-0.2294044,22.1379395-0.9176369c-0.6882324,5.8499184-0.9174805,11.355732-0.9174805,20.7614861
  v20.9908905c0,9.8645706,0.229248,15.2556763,0.9174805,21.449707c-6.8820801-0.6882324-12.5024414-0.9176407-21.9084473-0.9176407
  h-12.5026855v70.8872833c0,8.2587128-2.4089355,14.5674438-6.8823242,18.123291
  c-4.0146484,3.0970154-10.5527344,4.2440643-22.1379395,4.2440643c-2.6384277,0-5.3911133,0-12.0439453-0.2294159
  c-0.9177246-10.0939789-1.6057129-13.4203949-4.932373-23.9731903c5.6203613,0.9176331,10.3232422,1.1470337,15.3701172,1.1470337
  c4.932373,0,6.0795898-0.9176331,6.0795898-5.1616974v-65.1520615H2329.677002z M2332.3151855,100.1368942h44.276123V81.5547867
  h-44.276123V100.1368942z M2389.5524902,127.6659317c6.3088379,12.7321854,10.0942383,20.9908981,15.8293457,36.2465744
  l-19.4997559,10.5527954c-3.5559082-15.0262756-6.3088379-22.5967407-14.1086426-39.3435822L2389.5524902,127.6659317z
   M2429.8139648,80.4077377c-10.0939941,0-15.8293457,0.2294083-21.9086914,1.147049V54.9433823
  c5.3911133,0.9176369,10.7819824,1.1470413,21.9086914,1.1470413h6.5380859
  c0.6882324-12.9615936,0.9177246-21.4497108,0.9177246-32.2319183c0-9.6351652-0.2294922-16.5174255-1.1472168-22.3673458
  h26.8408203c-0.6884766,4.9322858-1.1469727,11.8145466-1.1469727,21.2203026
  c-0.2294922,11.1263218-0.4587402,20.3026638-1.3764648,33.4936676h26.6113281
  c11.8146973,0,17.2055664-0.2294083,23.0556641-1.1470451V81.669487
  c-6.8823242-0.9176407-12.0439453-1.1470413-23.0556641-1.1470413h-29.0202637
  c-0.6882324,4.7028732-0.6882324,5.391098-2.0646973,14.1086349h21.449707
  c-0.6884766,5.6205139-0.9177246,8.488121-0.9177246,18.5820999l-0.6884766,70.1990509
  c-0.229248,4.2440643,1.1472168,5.1616974,7.8000488,5.1616974c8.2585449,0,8.9470215-2.6381989,8.9470215-41.9817963
  c8.9470215,5.1616974,14.7966309,7.5704956,21.449707,8.9469452c-0.9177246,28.7907867-1.8354492,37.9671173-5.3911133,45.8817291
  c-3.7854004,8.7175446-10.7822266,11.585144-27.7583008,11.585144c-9.6352539,0-16.7470703-0.9176331-20.9909668-3.0970154
  c-4.932373-2.4087982-6.8823242-6.6528473-6.6530762-15.2556763l0.6884766-81.5547791v-5.3911057
  c-4.4733887,23.9732132-12.9616699,48.2905197-24.3173828,68.8225937
  c-9.8647461,17.6644592-16.7468262,26.8408051-32.4614258,42.6700134
  c-6.5380859-8.7175293-10.5527344-12.9615936-18.8112793-20.0732574
  c10.0939941-9.4057465,11.8146973-11.1263123,17.894043-18.8115082
  c12.5026855-15.8291931,18.3525391-26.1525879,24.776123-43.8170471
  c6.8823242-18.5821075,10.3234863-33.9524841,13.1911621-56.0904312H2429.8139648z M2483.3808594,3.7852423
  c11.8144531,13.191,15.8291016,18.5821037,25.9233398,34.6407089l-19.0412598,14.5674477
  c-8.7175293-16.74683-13.8791504-24.54673-24.5466309-37.5083199L2483.3808594,3.7852423z"/>
<path class="logo-word" d="M2565.5090332,94.7457809c-10.7822266,0-16.9763184,0.2294083-24.3173828,1.147049V73.5254822
  c6.5380859,0.6882248,12.7324219,0.9176331,24.3173828,0.9176331h28.4465332
  c-3.5559082-7.5704803-6.0793457-12.9615898-8.7175293-17.4350548h-25.3496094
  c-11.5852051,0-20.5319824,0.4588203-27.9875488,1.1470451V34.6407127
  c7.3408203,0.9176331,14.7966309,1.3764534,26.8405762,1.3764534h7.5705566
  c-4.4733887-8.2587147-7.3408203-12.0439568-16.0585938-21.9085293l23.5144043-8.9469376
  c8.0292969,11.1263218,11.3557129,16.7468357,18.123291,30.8554668h13.4204102V19.3850346
  c0-7.1116695-0.4587402-13.6498175-1.1469727-18.3526936h25.6936035c-0.4587402,4.2440615-0.6882324,9.405757-0.6882324,17.4350605
  v17.664465h16.7468262V18.3526936c0-7.5704842-0.229248-12.9615889-0.6882324-17.4350605h25.6936035
  c-0.6884766,4.4734707-1.1469727,10.7822056-1.1469727,18.3526955v16.7468376h14.7966309
  c8.2587891-11.8145485,12.7324219-20.0732613,16.9763184-31.5436954l24.3173828,8.9469376
  c-5.6206055,9.4057579-9.4057617,15.2556763-14.567627,22.5967579h6.6530762
  c12.2731934,0,19.4997559-0.4588203,26.6113281-1.3764534V58.155098c-7.3410645-0.6882248-16.517334-1.1470451-27.987793-1.1470451
  h-23.5144043c-4.4733887,9.4057503-5.3911133,11.5851402-8.7175293,17.4350548h27.2995605
  c11.5852051,0,17.4350586-0.2294006,24.3173828-0.9176331v22.3673401
  c-7.3410645-0.9176331-13.1911621-1.1470413-24.3173828-1.1470413h-61.4816895v11.3557358h49.208252
  c10.5527344,0,17.6643066-0.2294083,24.3171387-1.147049v21.220314c-6.652832-0.9176407-13.8793945-1.1470413-24.3171387-1.1470413
  h-49.208252v11.8145523h65.7258301c13.420166,0,21.6789551-0.4588165,28.5612793-1.3764496v23.514389
  c-8.7177734-0.9176483-17.4350586-1.3764496-28.2175293-1.3764496h-47.3728027
  c8.0292969,6.8822632,18.5820313,13.1909943,32.0021973,18.8115082
  c15.0266113,6.3087311,27.2998047,9.6351471,48.9787598,13.4203949
  c-6.5380859,8.9469452-9.4057617,14.1086426-13.4204102,23.9732056
  c-39.572998-10.782196-66.1843262-25.2349548-87.404541-46.6846619c0.6882324,8.9469452,0.6882324,11.1263123,0.6882324,16.7468414
  v11.585144c0,9.8645782,0.4587402,17.2056427,1.605957,23.7437897h-27.7585449
  c0.9177246-6.8822632,1.3764648-14.5674438,1.3764648-23.9731903v-11.3557281c0-5.391098,0-6.3087463,0.6882324-16.058609
  c-11.1262207,11.3557281-19.84375,18.123291-33.9523926,25.9231873
  c-15.0266113,8.2587128-29.4790039,14.3380432-48.0610352,19.8438568
  c-3.7854004-8.2587128-8.2587891-15.2556763-14.3381348-22.596756c34.411377-7.3410645,58.1550293-17.6644592,77.0812988-33.4936676
  h-43.8171387c-11.1262207,0-19.4997559,0.4588165-28.5612793,1.3764496v-23.514389
  c7.5708008,0.9176483,15.6000977,1.3764496,28.2175293,1.3764496h62.3989258v-11.8145447h-46.6845703
  c-10.3232422,0-17.4350586,0.2294006-23.9731445,1.1470413V104.839798
  c6.6530762,0.9176331,13.4204102,1.1470413,23.9731445,1.1470413h46.6845703V94.6311035h-59.0722656V94.7457809z
   M2657.8459473,74.4431152c3.5559082-6.8822556,5.3911133-11.1263161,7.7998047-17.4350548h-53.6816406
  c3.326416,7.1116676,4.703125,10.5527992,7.1115723,17.4350548H2657.8459473z"/>
<path class="logo-word" d="M2034.1984863,169.3036194c-6.5380859,5.5057983-15.0262451,8.8322296-24.2026367,8.8322296
  c-20.7614746,0-37.6230469-16.8615417-37.6230469-37.6230316s16.8614502-37.6230316,37.6230469-37.6230316
  c9.1763916,0,17.6645508,3.3264313,24.2026367,8.8322372l28.9055176-28.9054947
  c-13.9938965-12.9615936-32.6907959-20.8761864-53.1082764-20.8761864c-43.2434082,0-78.5723877,35.3289452-78.5723877,78.5724792
  s35.3289795,78.572464,78.5723877,78.572464c20.4174805,0,39.1141357-8.0292969,53.1082764-20.8761749L2034.1984863,169.3036194z"/>
<path class="logo-word" d="M1912.3825684,62.6285667v156.4567108h-41.7524414V62.6285667H1912.3825684z M1912.3825684,1.1470433
  v41.7523804h-41.7524414V1.1470433H1912.3825684z"/>
<path class="logo-word" d="M1852.1627197,1.1470433v217.9382324h-41.7523193V1.1470433H1852.1627197z"/>
<path class="logo-word" d="M1711.19104,104.4956512c20.7614746,0,37.5083008,16.2880249,37.5083008,36.3612823
  s-16.7468262,36.3612671-37.5083008,36.3612671c-20.7613525,0-37.5081787-16.2880096-37.5081787-36.3612671
  S1690.4296875,104.4956512,1711.19104,104.4956512 M1711.19104,219.0852814
  c44.6201172,0,80.8665771-34.9848175,80.8665771-78.2283478s-36.24646-78.2283554-80.8665771-78.2283554
  c-13.5351563,0-26.267334,3.2117233-37.5081787,8.9469376V0h-43.3582764v219.0852814h43.3582764v-8.9469299
  C1684.809082,215.8735657,1697.6560059,219.0852814,1711.19104,219.0852814"/>
<path class="logo-word" d="M1567.8106689,62.6285667h43.7022705v88.4370422
  c-0.114624,37.508316-30.6259766,67.7902527-68.2490234,68.0196686
  c-38.4259033,0.2294159-69.9696045-30.0525208-70.1989746-67.7902679V62.6285667h43.3582764v88.3223419
  c0.114624,12.8468933,9.1763916,25.2349548,25.8084717,25.2349548s25.5791016-12.5027618,25.5791016-26.8408051V62.6285667
  H1567.8106689z"/>
<path id="P_1_" class="logo-word" d="M1388.527832,1.1470433h-83.6195068v217.9382324h41.7524414v-85.2253265h42.2113037
  c37.3935547-0.2294006,67.3312988-30.3966446,67.2166748-67.3314362
  C1455.7446289,30.5113525,1425.6920166,1.2617482,1388.527832,1.1470433z M1388.4130859,92.3369904h-41.7524414V43.0141258
  h40.2612305c14.2232666,0,26.6113281,8.4881248,26.6113281,24.4320259
  C1413.4187012,83.5047607,1401.1453857,92.22229,1388.4130859,92.3369904z"/>
</svg>
